<?xml version="1.0" encoding="UTF-8" standalone="no"?>
<svg
   width="460.8pt"
   height="345.6pt"
   viewBox="0 0 460.8 345.6"
   version="1.1"
   id="svg81"
   sodipodi:docname="figure1-paper-edit.svg"
   inkscape:version="1.3.2 (091e20e, 2023-11-25)"
   xmlns:inkscape="http://www.inkscape.org/namespaces/inkscape"
   xmlns:sodipodi="http://sodipodi.sourceforge.net/DTD/sodipodi-0.dtd"
   xmlns:xlink="http://www.w3.org/1999/xlink"
   xmlns="http://www.w3.org/2000/svg"
   xmlns:svg="http://www.w3.org/2000/svg"
   xmlns:rdf="http://www.w3.org/1999/02/22-rdf-syntax-ns#"
   xmlns:cc="http://creativecommons.org/ns#"
   xmlns:dc="http://purl.org/dc/elements/1.1/">
  <sodipodi:namedview
     id="namedview81"
     pagecolor="#ffffff"
     bordercolor="#000000"
     borderopacity="0.25"
     inkscape:showpageshadow="2"
     inkscape:pageopacity="0.0"
     inkscape:pagecheckerboard="0"
     inkscape:deskcolor="#d1d1d1"
     inkscape:document-units="pt"
     inkscape:zoom="1.0972716"
     inkscape:cx="269.30434"
     inkscape:cy="200.04164"
     inkscape:window-width="1512"
     inkscape:window-height="860"
     inkscape:window-x="202"
     inkscape:window-y="1118"
     inkscape:window-maximized="1"
     inkscape:current-layer="figure_1" />
  <metadata
     id="metadata1">
    <rdf:RDF>
      <cc:Work>
        <dc:type
           rdf:resource="http://purl.org/dc/dcmitype/StillImage" />
        <dc:date>2024-06-06T00:56:47.506872</dc:date>
        <dc:format>image/svg+xml</dc:format>
        <dc:creator>
          <cc:Agent>
            <dc:title>Matplotlib v3.9.0, https://matplotlib.org/</dc:title>
          </cc:Agent>
        </dc:creator>
      </cc:Work>
    </rdf:RDF>
  </metadata>
  <defs
     id="defs1">
    <style
       type="text/css"
       id="style1">*{stroke-linejoin: round; stroke-linecap: butt}</style>
    <clipPath
       id="pf361c1727c-1-9">
      <rect
         x="57.599998"
         y="41.472"
         width="357.12"
         height="266.112"
         id="rect93-7-41" />
    </clipPath>
    <clipPath
       id="pf361c1727c-1">
      <rect
         x="57.599998"
         y="41.472"
         width="357.12"
         height="266.112"
         id="rect93-7" />
    </clipPath>
  </defs>
  <g
     id="figure_1">
    <g
       id="patch_1">
      <path
         d="M 0 345.6 L 460.8 345.6 L 460.8 0 L 0 0 z "
         style="fill: #ffffff"
         id="path1" />
    </g>
    <text
       xml:space="preserve"
       style="font-size:12px;font-family:'Times New Roman';-inkscape-font-specification:'Times New Roman, ';fill:none;fill-rule:evenodd;stroke:#000000;stroke-width:1;stroke-linecap:butt;stroke-linejoin:round;stroke-dasharray:none;stroke-opacity:1"
       x="220.89992"
       y="334.57526"
       id="text101-1-96-8-3"
       inkscape:label="x label"><tspan
         sodipodi:role="line"
         id="tspan101-7-7-26-1"
         style="font-style:normal;font-variant:normal;font-weight:normal;font-stretch:normal;font-family:Arial;-inkscape-font-specification:Arial;fill:#000000;fill-opacity:1;stroke:none;stroke-width:1;stroke-dasharray:none"
         x="220.89992"
         y="334.57526">score</tspan></text>
    <g
       id="axes_1">
      <g
         id="patch_2">
        <path
           d="M 57.6 307.584 L 414.72 307.584 L 414.72 41.472 L 57.6 41.472 z "
           style="fill: #ffffff"
           id="path2" />
      </g>
      <g
         id="matplotlib.axis_1">
        <g
           id="xtick_1">
          <g
             id="line2d_1">
            <defs
               id="defs2">
              <path
                 id="mf2694399ee"
                 d="M 0 0 L 0 3.5 "
                 style="stroke: #000000; stroke-width: 0.8" />
            </defs>
            <g
               id="g2">
              <use
                 xlink:href="#mf2694399ee"
                 x="87.36"
                 y="307.584"
                 style="stroke: #000000; stroke-width: 0.8"
                 id="use2" />
            </g>
          </g>
          <g
             id="text_1">
            <!-- −10 -->
            <g
               transform="translate(76.807656 322.182437) scale(0.1 -0.1)"
               id="g5">
              <defs
                 id="defs3">
                <path
                   id="DejaVuSans-2212"
                   d="M 678 2272 L 4684 2272 L 4684 1741 L 678 1741 L 678 2272 z "
                   transform="scale(0.015625)" />
                <path
                   id="DejaVuSans-31"
                   d="M 794 531 L 1825 531 L 1825 4091 L 703 3866 L 703 4441 L 1819 4666 L 2450 4666 L 2450 531 L 3481 531 L 3481 0 L 794 0 L 794 531 z "
                   transform="scale(0.015625)" />
                <path
                   id="DejaVuSans-30"
                   d="M 2034 4250 Q 1547 4250 1301 3770 Q 1056 3291 1056 2328 Q 1056 1369 1301 889 Q 1547 409 2034 409 Q 2525 409 2770 889 Q 3016 1369 3016 2328 Q 3016 3291 2770 3770 Q 2525 4250 2034 4250 z M 2034 4750 Q 2819 4750 3233 4129 Q 3647 3509 3647 2328 Q 3647 1150 3233 529 Q 2819 -91 2034 -91 Q 1250 -91 836 529 Q 422 1150 422 2328 Q 422 3509 836 4129 Q 1250 4750 2034 4750 z "
                   transform="scale(0.015625)" />
              </defs>
              <use
                 xlink:href="#DejaVuSans-2212"
                 id="use3" />
              <use
                 xlink:href="#DejaVuSans-31"
                 x="83.789062"
                 id="use4" />
              <use
                 xlink:href="#DejaVuSans-30"
                 x="147.412109"
                 id="use5" />
            </g>
          </g>
        </g>
        <g
           id="xtick_2">
          <g
             id="line2d_2">
            <g
               id="g6">
              <use
                 xlink:href="#mf2694399ee"
                 x="161.76"
                 y="307.584"
                 style="stroke: #000000; stroke-width: 0.8"
                 id="use6" />
            </g>
          </g>
          <g
             id="text_2">
            <!-- −5 -->
            <g
               transform="translate(154.388906 322.182437) scale(0.1 -0.1)"
               id="g8">
              <defs
                 id="defs6">
                <path
                   id="DejaVuSans-35"
                   d="M 691 4666 L 3169 4666 L 3169 4134 L 1269 4134 L 1269 2991 Q 1406 3038 1543 3061 Q 1681 3084 1819 3084 Q 2600 3084 3056 2656 Q 3513 2228 3513 1497 Q 3513 744 3044 326 Q 2575 -91 1722 -91 Q 1428 -91 1123 -41 Q 819 9 494 109 L 494 744 Q 775 591 1075 516 Q 1375 441 1709 441 Q 2250 441 2565 725 Q 2881 1009 2881 1497 Q 2881 1984 2565 2268 Q 2250 2553 1709 2553 Q 1456 2553 1204 2497 Q 953 2441 691 2322 L 691 4666 z "
                   transform="scale(0.015625)" />
              </defs>
              <use
                 xlink:href="#DejaVuSans-2212"
                 id="use7" />
              <use
                 xlink:href="#DejaVuSans-35"
                 x="83.789062"
                 id="use8" />
            </g>
          </g>
        </g>
        <g
           id="xtick_3">
          <g
             id="line2d_3">
            <g
               id="g9">
              <use
                 xlink:href="#mf2694399ee"
                 x="236.16"
                 y="307.584"
                 style="stroke: #000000; stroke-width: 0.8"
                 id="use9" />
            </g>
          </g>
          <g
             id="text_3">
            <!-- 0 -->
            <g
               transform="translate(232.97875 322.182437) scale(0.1 -0.1)"
               id="g10">
              <use
                 xlink:href="#DejaVuSans-30"
                 id="use10" />
            </g>
          </g>
        </g>
        <g
           id="xtick_4">
          <g
             id="line2d_4">
            <g
               id="g11">
              <use
                 xlink:href="#mf2694399ee"
                 x="310.56"
                 y="307.584"
                 style="stroke: #000000; stroke-width: 0.8"
                 id="use11" />
            </g>
          </g>
          <g
             id="text_4">
            <!-- 5 -->
            <g
               transform="translate(307.37875 322.182437) scale(0.1 -0.1)"
               id="g12">
              <use
                 xlink:href="#DejaVuSans-35"
                 id="use12" />
            </g>
          </g>
        </g>
        <g
           id="xtick_5">
          <g
             id="line2d_5">
            <g
               id="g13">
              <use
                 xlink:href="#mf2694399ee"
                 x="384.96"
                 y="307.584"
                 style="stroke: #000000; stroke-width: 0.8"
                 id="use13" />
            </g>
          </g>
          <g
             id="text_5">
            <!-- 10 -->
            <g
               transform="translate(378.5975 322.182437) scale(0.1 -0.1)"
               id="g15">
              <use
                 xlink:href="#DejaVuSans-31"
                 id="use14" />
              <use
                 xlink:href="#DejaVuSans-30"
                 x="63.623047"
                 id="use15" />
            </g>
          </g>
        </g>
      </g>
      <g
         id="matplotlib.axis_2">
        <g
           id="ytick_1">
          <g
             id="line2d_6">
            <defs
               id="defs25">
              <path
                 id="m62df163907"
                 d="M 0 0 L -3.5 0 "
                 style="stroke: #000000; stroke-width: 0.8" />
            </defs>
            <g
               id="g26">
              <use
                 xlink:href="#m62df163907"
                 x="57.6"
                 y="307.584"
                 style="stroke: #000000; stroke-width: 0.8"
                 id="use26" />
            </g>
          </g>
          <g
             id="text_7">
            <!-- 0.00 -->
            <g
               transform="translate(28.334375 311.383219) scale(0.1 -0.1)"
               id="g30">
              <defs
                 id="defs26">
                <path
                   id="DejaVuSans-2e"
                   d="M 684 794 L 1344 794 L 1344 0 L 684 0 L 684 794 z "
                   transform="scale(0.015625)" />
              </defs>
              <use
                 xlink:href="#DejaVuSans-30"
                 id="use27" />
              <use
                 xlink:href="#DejaVuSans-2e"
                 x="63.623047"
                 id="use28" />
              <use
                 xlink:href="#DejaVuSans-30"
                 x="95.410156"
                 id="use29" />
              <use
                 xlink:href="#DejaVuSans-30"
                 x="159.033203"
                 id="use30" />
            </g>
          </g>
        </g>
        <g
           id="ytick_2">
          <g
             id="line2d_7">
            <g
               id="g31">
              <use
                 xlink:href="#m62df163907"
                 x="57.6"
                 y="254.3616"
                 style="stroke: #000000; stroke-width: 0.8"
                 id="use31" />
            </g>
          </g>
          <g
             id="text_8">
            <!-- 0.05 -->
            <g
               transform="translate(28.334375 258.160819) scale(0.1 -0.1)"
               id="g35">
              <use
                 xlink:href="#DejaVuSans-30"
                 id="use32" />
              <use
                 xlink:href="#DejaVuSans-2e"
                 x="63.623047"
                 id="use33" />
              <use
                 xlink:href="#DejaVuSans-30"
                 x="95.410156"
                 id="use34" />
              <use
                 xlink:href="#DejaVuSans-35"
                 x="159.033203"
                 id="use35" />
            </g>
          </g>
        </g>
        <g
           id="ytick_3">
          <g
             id="line2d_8">
            <g
               id="g36">
              <use
                 xlink:href="#m62df163907"
                 x="57.6"
                 y="201.1392"
                 style="stroke: #000000; stroke-width: 0.8"
                 id="use36" />
            </g>
          </g>
          <g
             id="text_9">
            <!-- 0.10 -->
            <g
               transform="translate(28.334375 204.938419) scale(0.1 -0.1)"
               id="g40">
              <use
                 xlink:href="#DejaVuSans-30"
                 id="use37" />
              <use
                 xlink:href="#DejaVuSans-2e"
                 x="63.623047"
                 id="use38" />
              <use
                 xlink:href="#DejaVuSans-31"
                 x="95.410156"
                 id="use39" />
              <use
                 xlink:href="#DejaVuSans-30"
                 x="159.033203"
                 id="use40" />
            </g>
          </g>
        </g>
        <g
           id="ytick_4">
          <g
             id="line2d_9">
            <g
               id="g41">
              <use
                 xlink:href="#m62df163907"
                 x="57.6"
                 y="147.9168"
                 style="stroke: #000000; stroke-width: 0.8"
                 id="use41" />
            </g>
          </g>
          <g
             id="text_10">
            <!-- 0.15 -->
            <g
               transform="translate(28.334375 151.716019) scale(0.1 -0.1)"
               id="g45">
              <use
                 xlink:href="#DejaVuSans-30"
                 id="use42" />
              <use
                 xlink:href="#DejaVuSans-2e"
                 x="63.623047"
                 id="use43" />
              <use
                 xlink:href="#DejaVuSans-31"
                 x="95.410156"
                 id="use44" />
              <use
                 xlink:href="#DejaVuSans-35"
                 x="159.033203"
                 id="use45" />
            </g>
          </g>
        </g>
        <g
           id="ytick_5">
          <g
             id="line2d_10">
            <g
               id="g46">
              <use
                 xlink:href="#m62df163907"
                 x="57.6"
                 y="94.6944"
                 style="stroke: #000000; stroke-width: 0.8"
                 id="use46" />
            </g>
          </g>
          <g
             id="text_11">
            <!-- 0.20 -->
            <g
               transform="translate(28.334375 98.493619) scale(0.1 -0.1)"
               id="g50">
              <defs
                 id="defs46">
                <path
                   id="DejaVuSans-32"
                   d="M 1228 531 L 3431 531 L 3431 0 L 469 0 L 469 531 Q 828 903 1448 1529 Q 2069 2156 2228 2338 Q 2531 2678 2651 2914 Q 2772 3150 2772 3378 Q 2772 3750 2511 3984 Q 2250 4219 1831 4219 Q 1534 4219 1204 4116 Q 875 4013 500 3803 L 500 4441 Q 881 4594 1212 4672 Q 1544 4750 1819 4750 Q 2544 4750 2975 4387 Q 3406 4025 3406 3419 Q 3406 3131 3298 2873 Q 3191 2616 2906 2266 Q 2828 2175 2409 1742 Q 1991 1309 1228 531 z "
                   transform="scale(0.015625)" />
              </defs>
              <use
                 xlink:href="#DejaVuSans-30"
                 id="use47" />
              <use
                 xlink:href="#DejaVuSans-2e"
                 x="63.623047"
                 id="use48" />
              <use
                 xlink:href="#DejaVuSans-32"
                 x="95.410156"
                 id="use49" />
              <use
                 xlink:href="#DejaVuSans-30"
                 x="159.033203"
                 id="use50" />
            </g>
          </g>
        </g>
        <g
           id="ytick_6">
          <g
             id="line2d_11">
            <g
               id="g51">
              <use
                 xlink:href="#m62df163907"
                 x="57.6"
                 y="41.472"
                 style="stroke: #000000; stroke-width: 0.8"
                 id="use51" />
            </g>
          </g>
          <g
             id="text_12">
            <!-- 0.25 -->
            <g
               transform="translate(28.334375 45.271219) scale(0.1 -0.1)"
               id="g55">
              <use
                 xlink:href="#DejaVuSans-30"
                 id="use52" />
              <use
                 xlink:href="#DejaVuSans-2e"
                 x="63.623047"
                 id="use53" />
              <use
                 xlink:href="#DejaVuSans-32"
                 x="95.410156"
                 id="use54" />
              <use
                 xlink:href="#DejaVuSans-35"
                 x="159.033203"
                 id="use55" />
            </g>
          </g>
        </g>
        <g
           id="text_13">
          <!-- probability density -->
          <g
             transform="translate(22.254687 221.125656) rotate(-90) scale(0.1 -0.1)"
             id="g74">
            <defs
               id="defs55">
              <path
                 id="DejaVuSans-62"
                 d="M 3116 1747 Q 3116 2381 2855 2742 Q 2594 3103 2138 3103 Q 1681 3103 1420 2742 Q 1159 2381 1159 1747 Q 1159 1113 1420 752 Q 1681 391 2138 391 Q 2594 391 2855 752 Q 3116 1113 3116 1747 z M 1159 2969 Q 1341 3281 1617 3432 Q 1894 3584 2278 3584 Q 2916 3584 3314 3078 Q 3713 2572 3713 1747 Q 3713 922 3314 415 Q 2916 -91 2278 -91 Q 1894 -91 1617 61 Q 1341 213 1159 525 L 1159 0 L 581 0 L 581 4863 L 1159 4863 L 1159 2969 z "
                 transform="scale(0.015625)" />
              <path
                 id="DejaVuSans-61"
                 d="M 2194 1759 Q 1497 1759 1228 1600 Q 959 1441 959 1056 Q 959 750 1161 570 Q 1363 391 1709 391 Q 2188 391 2477 730 Q 2766 1069 2766 1631 L 2766 1759 L 2194 1759 z M 3341 1997 L 3341 0 L 2766 0 L 2766 531 Q 2569 213 2275 61 Q 1981 -91 1556 -91 Q 1019 -91 701 211 Q 384 513 384 1019 Q 384 1609 779 1909 Q 1175 2209 1959 2209 L 2766 2209 L 2766 2266 Q 2766 2663 2505 2880 Q 2244 3097 1772 3097 Q 1472 3097 1187 3025 Q 903 2953 641 2809 L 641 3341 Q 956 3463 1253 3523 Q 1550 3584 1831 3584 Q 2591 3584 2966 3190 Q 3341 2797 3341 1997 z "
                 transform="scale(0.015625)" />
              <path
                 id="DejaVuSans-69"
                 d="M 603 3500 L 1178 3500 L 1178 0 L 603 0 L 603 3500 z M 603 4863 L 1178 4863 L 1178 4134 L 603 4134 L 603 4863 z "
                 transform="scale(0.015625)" />
              <path
                 id="DejaVuSans-6c"
                 d="M 603 4863 L 1178 4863 L 1178 0 L 603 0 L 603 4863 z "
                 transform="scale(0.015625)" />
              <path
                 id="DejaVuSans-74"
                 d="M 1172 4494 L 1172 3500 L 2356 3500 L 2356 3053 L 1172 3053 L 1172 1153 Q 1172 725 1289 603 Q 1406 481 1766 481 L 2356 481 L 2356 0 L 1766 0 Q 1100 0 847 248 Q 594 497 594 1153 L 594 3053 L 172 3053 L 172 3500 L 594 3500 L 594 4494 L 1172 4494 z "
                 transform="scale(0.015625)" />
              <path
                 id="DejaVuSans-79"
                 d="M 2059 -325 Q 1816 -950 1584 -1140 Q 1353 -1331 966 -1331 L 506 -1331 L 506 -850 L 844 -850 Q 1081 -850 1212 -737 Q 1344 -625 1503 -206 L 1606 56 L 191 3500 L 800 3500 L 1894 763 L 2988 3500 L 3597 3500 L 2059 -325 z "
                 transform="scale(0.015625)" />
              <path
                 id="DejaVuSans-20"
                 transform="scale(0.015625)" />
              <path
                 id="DejaVuSans-6e"
                 d="M 3513 2113 L 3513 0 L 2938 0 L 2938 2094 Q 2938 2591 2744 2837 Q 2550 3084 2163 3084 Q 1697 3084 1428 2787 Q 1159 2491 1159 1978 L 1159 0 L 581 0 L 581 3500 L 1159 3500 L 1159 2956 Q 1366 3272 1645 3428 Q 1925 3584 2291 3584 Q 2894 3584 3203 3211 Q 3513 2838 3513 2113 z "
                 transform="scale(0.015625)" />
            </defs>
            <path
               id="use56"
               d="m 18.109375,8.203125 v -29 H 9.078125 V 54.6875 h 9.03125 v -8.296875 q 2.84375,4.875 7.15625,7.234375 Q 29.59375,56 35.59375,56 q 9.96875,0 16.1875,-7.90625 6.234375,-7.90625 6.234375,-20.796875 0,-12.890625 -6.234375,-20.8125 -6.21875,-7.90625 -16.1875,-7.90625 -6,0 -10.328125,2.375 -4.3125,2.375 -7.15625,7.25 z M 48.6875,27.296875 q 0,9.90625 -4.078125,15.546875 -4.078125,5.640625 -11.203125,5.640625 -7.140625,0 -11.21875,-5.640625 -4.078125,-5.640625 -4.078125,-15.546875 0,-9.90625 4.078125,-15.546875 4.078125,-5.640625 11.21875,-5.640625 7.125,0 11.203125,5.640625 4.078125,5.640625 4.078125,15.546875 z"
               style="stroke-width:0.015625" />
            <path
               id="use57"
               d="m 104.58594,46.296875 q -1.51563,0.875 -3.29688,1.28125 Q 99.507812,48 97.367187,48 89.742187,48 85.664062,43.046875 81.585937,38.09375 81.585937,28.8125 V 0 h -9.03125 v 54.6875 h 9.03125 v -8.5 q 2.84375,4.984375 7.375,7.390625 Q 93.507812,56 100.00781,56 q 0.92188,0 2.04688,-0.125 1.125,-0.109375 2.48437,-0.359375 z"
               style="stroke-width:0.015625" />
            <path
               id="use58"
               d="m 132.94922,48.390625 q -7.21875,0 -11.42188,-5.640625 -4.20312,-5.640625 -4.20312,-15.453125 0,-9.8125 4.17187,-15.453125 4.1875,-5.640625 11.45313,-5.640625 7.1875,0 11.375,5.65625 4.20312,5.671875 4.20312,15.4375 0,9.71875 -4.20312,15.40625 -4.1875,5.6875 -11.375,5.6875 z m 0,7.609375 q 11.71875,0 18.40625,-7.625 6.70312,-7.609375 6.70312,-21.078125 0,-13.421875 -6.70312,-21.078125 -6.6875,-7.640625 -18.40625,-7.640625 -11.76563,0 -18.4375,7.640625 -6.65625,7.65625 -6.65625,21.078125 0,13.46875 6.65625,21.078125 6.67187,7.625 18.4375,7.625 z"
               style="stroke-width:0.015625" />
            <use
               xlink:href="#DejaVuSans-62"
               x="163.521484"
               id="use59" />
            <use
               xlink:href="#DejaVuSans-61"
               x="226.998047"
               id="use60" />
            <use
               xlink:href="#DejaVuSans-62"
               x="288.277344"
               id="use61" />
            <use
               xlink:href="#DejaVuSans-69"
               x="351.753906"
               id="use62" />
            <use
               xlink:href="#DejaVuSans-6c"
               x="379.537109"
               id="use63" />
            <use
               xlink:href="#DejaVuSans-69"
               x="407.320312"
               id="use64" />
            <use
               xlink:href="#DejaVuSans-74"
               x="435.103516"
               id="use65" />
            <use
               xlink:href="#DejaVuSans-79"
               x="474.3125"
               id="use66" />
            <use
               xlink:href="#DejaVuSans-20"
               x="533.492188"
               id="use67" />
            <path
               id="use68"
               d="m 610.68555,46.390625 v 29.59375 h 8.98437 V 0 h -8.98437 v 8.203125 q -2.82813,-4.875 -7.15625,-7.25 -4.3125,-2.375 -10.375,-2.375 -9.90625,0 -16.14063,7.90625 -6.21875,7.921875 -6.21875,20.8125 0,12.890625 6.21875,20.796875 Q 583.24805,56 593.1543,56 q 6.0625,0 10.375,-2.375 4.32812,-2.359375 7.15625,-7.234375 z m -30.60938,-19.09375 q 0,-9.90625 4.07813,-15.546875 4.07812,-5.640625 11.20312,-5.640625 7.125,0 11.21875,5.640625 4.10938,5.640625 4.10938,15.546875 0,9.90625 -4.10938,15.546875 -4.09375,5.640625 -11.21875,5.640625 -7.125,0 -11.20312,-5.640625 -4.07813,-5.640625 -4.07813,-15.546875 z"
               style="stroke-width:0.015625" />
            <path
               id="use69"
               d="m 684.95898,29.59375 v -4.390625 h -41.3125 q 0.59375,-9.28125 5.59375,-14.140625 5,-4.859375 13.9375,-4.859375 5.17188,0 10.03125,1.265625 4.85938,1.265625 9.65625,3.8125 v -8.5 q -4.84375,-2.046875 -9.92187,-3.125 -5.07813,-1.078125 -10.29688,-1.078125 -13.09375,0 -20.73437,7.609375 -7.64063,7.625 -7.64063,20.625 0,13.421875 7.25,21.296875 Q 648.77148,56 661.08398,56 q 11.03125,0 17.45313,-7.109375 6.42187,-7.09375 6.42187,-19.296875 z m -8.98437,2.640625 q -0.0937,7.359375 -4.125,11.75 -4.03125,4.40625 -10.67188,4.40625 -7.51562,0 -12.03125,-4.25 -4.51562,-4.25 -5.20312,-11.96875 z"
               style="stroke-width:0.015625" />
            <use
               xlink:href="#DejaVuSans-6e"
               x="690.279297"
               id="use70" />
            <path
               id="use71"
               d="m 797.93945,53.078125 v -8.5 Q 794.14258,46.53125 790.0332,47.5 q -4.09375,0.984375 -8.5,0.984375 -6.6875,0 -10.03125,-2.046875 -3.34375,-2.046875 -3.34375,-6.15625 0,-3.125 2.39063,-4.90625 2.39062,-1.78125 9.625,-3.390625 l 3.07812,-0.6875 q 9.5625,-2.046875 13.59375,-5.78125 4.03125,-3.734375 4.03125,-10.421875 0,-7.625 -6.03125,-12.078125 -6.03125,-4.4375 -16.57812,-4.4375 -4.39063,0 -9.15625,0.859375 Q 764.3457,0.296875 759.08008,2 v 9.28125 q 4.98437,-2.59375 9.8125,-3.890625 4.82812,-1.28125 9.57812,-1.28125 6.34375,0 9.75,2.171875 3.42188,2.171875 3.42188,6.125 0,3.65625 -2.46875,5.609375 -2.45313,1.953125 -10.8125,3.765625 l -3.125,0.734375 q -8.34375,1.75 -12.0625,5.390625 -3.70313,3.640625 -3.70313,9.984375 0,7.71875 5.46875,11.90625 Q 770.4082,56 780.4707,56 q 4.96875,0 9.35938,-0.734375 4.40625,-0.71875 8.10937,-2.1875 z"
               style="stroke-width:0.015625" />
            <use
               xlink:href="#DejaVuSans-69"
               x="805.757812"
               id="use72" />
            <use
               xlink:href="#DejaVuSans-74"
               x="833.541016"
               id="use73" />
            <use
               xlink:href="#DejaVuSans-79"
               x="872.75"
               id="use74" />
          </g>
        </g>
      </g>
      <g
         id="line2d_12">
        <path
           d="M 117.98999 307.583592 L 135.201977 307.462308 L 138.070641 307.29079 L 140.22214 306.937837 L 143.80797 306.082603 L 146.676635 305.13417 L 149.545299 304.076357 L 150.262465 303.619941 L 150.979632 302.983116 L 151.696798 302.153955 L 153.13113 300.001311 L 154.565462 297.367529 L 156.716961 292.800411 L 158.151293 289.228329 L 160.302791 283.122008 L 161.737123 278.588685 L 163.171456 273.074674 L 164.605788 266.196137 L 166.04012 258.021562 L 167.474452 248.375709 L 172.494615 211.317157 L 174.646114 196.577297 L 176.080446 184.921452 L 180.383443 147.791744 L 182.534941 131.616974 L 183.969273 122.167838 L 184.686439 118.297928 L 186.120772 112.292911 L 188.989436 102.214766 L 189.706602 100.427978 L 190.423768 99.49871 L 191.140935 99.552242 L 191.858101 100.46775 L 195.443931 107.445744 L 196.161097 109.429971 L 197.59543 115.071719 L 199.029762 121.718438 L 199.746928 125.689655 L 200.464094 130.495151 L 201.898426 142.198798 L 203.332759 153.941331 L 206.201423 175.318834 L 210.50442 212.931657 L 215.524583 250.278996 L 216.958915 258.796869 L 218.393247 265.398177 L 223.41341 286.085289 L 224.130576 288.215322 L 224.847742 289.911314 L 229.867905 299.584784 L 231.302237 301.554587 L 232.73657 303.020694 L 234.170902 304.108284 L 235.605234 304.911095 L 237.039566 305.496956 L 238.473899 305.887862 L 245.64556 307.150617 L 249.231391 307.462961 L 252.817221 307.457362 L 256.403052 307.522234 L 260.706048 307.583566 L 260.706048 307.583566 "
           clip-path="url(#p58c5d5dc26)"
           style="fill: none; stroke-dasharray: 7.4,3.2; stroke-dashoffset: 0; stroke: #ff7f0e; stroke-width: 2"
           id="path74" />
      </g>
      <g
         id="line2d_13">
        <path
           d="M 200.056335 307.583587 L 208.718325 307.478594 L 216.714008 306.703288 L 219.379235 306.129481 L 221.378156 305.353349 L 222.71077 304.568354 L 224.043384 303.392914 L 227.374918 299.797925 L 228.707532 298.150416 L 230.040146 296.003263 L 231.37276 293.128255 L 232.705373 289.601356 L 234.704294 283.615383 L 236.036908 279.095348 L 237.369522 273.676282 L 238.702136 267.046708 L 240.701056 255.449812 L 244.698898 230.79165 L 246.031511 221.806595 L 248.030432 206.453768 L 250.029353 189.805143 L 251.361967 177.200416 L 254.693501 143.891813 L 256.026115 133.120086 L 257.358729 124.290047 L 258.691343 116.939468 L 260.690263 107.225592 L 262.022877 101.556461 L 263.355491 97.238325 L 264.021798 95.686226 L 264.688105 94.561436 L 265.354411 93.860116 L 266.020718 93.5481 L 266.687025 93.605763 L 267.353332 94.104379 L 268.019639 95.22193 L 268.685946 97.147185 L 269.352253 99.93465 L 270.684867 107.35253 L 276.015322 140.124295 L 277.347936 149.654359 L 278.680549 160.764726 L 282.678391 195.680194 L 286.009925 221.863453 L 288.675153 240.976949 L 290.674074 253.627028 L 292.672994 264.072358 L 294.671915 272.897531 L 298.00345 285.9248 L 299.336063 290.599446 L 300.668677 294.372282 L 301.334984 295.772582 L 302.667598 297.763214 L 307.998053 303.939379 L 309.330667 304.994666 L 310.663281 305.690596 L 312.662201 306.345027 L 314.661122 306.808162 L 316.660043 307.038659 L 327.98726 307.546544 L 332.651408 307.583587 L 332.651408 307.583587 "
           clip-path="url(#p58c5d5dc26)"
           style="fill: none; stroke-dasharray: 7.4,3.2; stroke-dashoffset: 0; stroke: #1f77b4; stroke-width: 2"
           id="path75" />
      </g>
      <g
         id="line2d_14">
        <path
           d="M 154.752768 307.583491 L 162.672252 307.472523 L 165.31208 307.338377 L 169.931778 306.765973 L 175.871391 305.83665 L 177.191305 305.363752 L 178.511219 304.677101 L 179.831133 303.587572 L 181.151047 302.058761 L 183.130917 299.504149 L 184.450831 297.402834 L 185.770745 294.590246 L 187.750616 289.421871 L 189.730487 283.858386 L 191.050401 279.508019 L 192.370315 274.452407 L 193.690229 268.675455 L 195.010143 261.969513 L 196.990014 250.253357 L 199.629841 233.087131 L 201.609712 218.157185 L 203.589583 203.310658 L 204.909497 193.64666 L 206.229411 182.221331 L 208.869239 157.684072 L 210.189153 148.098735 L 212.169024 134.841363 L 215.468808 110.617034 L 216.128765 107.337664 L 216.788722 104.694135 L 218.108636 100.709173 L 218.768593 99.286668 L 219.42855 98.308467 L 220.088507 97.814674 L 220.748464 97.816271 L 221.408421 98.308514 L 222.068378 99.244103 L 224.708206 104.442346 L 225.368163 105.889168 L 226.02812 107.759831 L 226.688077 110.285706 L 227.348034 113.580168 L 228.667947 122.090051 L 231.307775 140.137772 L 232.627689 149.445701 L 234.60756 165.482829 L 236.587431 183.242322 L 238.567302 201.073054 L 239.887216 210.866081 L 242.527044 229.014575 L 245.166871 248.682616 L 246.486785 256.837956 L 247.806699 263.959398 L 249.126613 270.089859 L 251.766441 280.752675 L 253.086355 285.447641 L 255.066226 291.516781 L 256.38614 294.922822 L 257.046097 296.247811 L 257.706054 297.291018 L 259.025967 298.827568 L 261.005838 301.119211 L 262.325752 302.622264 L 263.645666 303.70903 L 266.285494 305.332923 L 267.605408 306.008204 L 268.925322 306.451013 L 270.245236 306.64229 L 274.204977 307.001851 L 276.844805 307.24449 L 284.104332 307.570628 L 286.084203 307.583213 L 286.084203 307.583213 "
           clip-path="url(#p58c5d5dc26)"
           style="fill: none; stroke: #ff7f0e; stroke-width: 2; stroke-linecap: square"
           id="path76" />
      </g>
      <g
         id="line2d_15">
        <path
           d="M 178.091273 307.583586 L 193.175873 307.460023 L 196.04913 307.30635 L 201.795644 306.605382 L 206.823844 305.220233 L 208.260473 304.432484 L 210.415415 302.734757 L 212.570358 300.768036 L 214.006987 298.950223 L 215.443615 296.422504 L 216.880244 293.301486 L 218.316872 289.753398 L 219.753501 285.569917 L 221.190129 280.263295 L 222.626758 273.609046 L 224.781701 261.875276 L 227.654958 244.968154 L 229.091586 234.837423 L 235.556415 182.355663 L 239.8663 144.324299 L 241.302929 132.918072 L 242.739557 123.526121 L 244.176186 116.384822 L 247.767757 100.367212 L 248.486072 97.994424 L 249.204386 96.198743 L 249.9227 95.001348 L 250.641014 94.432117 L 251.359329 94.515863 L 252.077643 95.230595 L 252.795957 96.496495 L 253.514271 98.218477 L 254.232586 100.347139 L 254.9509 102.890718 L 256.387528 109.21178 L 257.824157 116.964881 L 259.260786 126.528826 L 265.0073 170.237431 L 267.880557 195.862995 L 273.627071 240.586353 L 275.063699 250.366448 L 276.500328 258.87447 L 278.655271 269.722879 L 280.091899 275.91694 L 281.528528 281.180995 L 282.965156 285.68204 L 285.120099 291.513516 L 286.556728 294.943385 L 287.993356 297.767105 L 289.429985 300.07166 L 290.866613 301.852493 L 292.303242 303.113396 L 294.458185 304.560158 L 295.894813 305.256979 L 300.204699 306.796167 L 301.641327 307.060865 L 303.79627 307.111864 L 306.669527 307.168564 L 311.697727 307.477537 L 321.035813 307.583586 L 321.035813 307.583586 "
           clip-path="url(#p58c5d5dc26)"
           style="fill: none; stroke: #1f77b4; stroke-width: 2; stroke-linecap: square"
           id="path77" />
      </g>
      <g
         id="patch_3">
        <path
           d="M 57.6 307.584 L 57.6 41.472 "
           style="fill: none; stroke: #000000; stroke-width: 0.8; stroke-linejoin: miter; stroke-linecap: square"
           id="path78" />
      </g>
      <g
         id="patch_4">
        <path
           d="M 414.72 307.584 L 414.72 41.472 "
           style="fill: none; stroke: #000000; stroke-width: 0.8; stroke-linejoin: miter; stroke-linecap: square"
           id="path79" />
      </g>
      <g
         id="patch_5">
        <path
           d="M 57.6 307.584 L 414.72 307.584 "
           style="fill: none; stroke: #000000; stroke-width: 0.8; stroke-linejoin: miter; stroke-linecap: square"
           id="path80" />
      </g>
      <g
         id="patch_6">
        <path
           d="M 57.6 41.472 L 414.72 41.472 "
           style="fill: none; stroke: #000000; stroke-width: 0.8; stroke-linejoin: miter; stroke-linecap: square"
           id="path81" />
      </g>
    </g>
  </g>
  <defs
     id="defs81">
    <clipPath
       id="p58c5d5dc26">
      <rect
         x="57.6"
         y="41.472"
         width="357.12"
         height="266.112"
         id="rect81" />
    </clipPath>
  </defs>
  <g
     id="line2d_15-1-6"
     style="fill:none;stroke-width:1.1;stroke-linecap:butt;stroke-linejoin:round;stroke-dasharray:none"
     transform="matrix(0.8178384,0.0053602,-0.00338118,1.2965398,256.27566,-61.018187)"
     inkscape:label="legend">
    <text
       xml:space="preserve"
       style="font-size:11.6534px;font-family:'Times New Roman';-inkscape-font-specification:'Times New Roman, ';fill:none;fill-rule:evenodd;stroke:#000000;stroke-width:0.971113;stroke-linecap:butt;stroke-linejoin:round;stroke-dasharray:none;stroke-opacity:1"
       x="58.072796"
       y="205.33151"
       id="text101-1-96"
       inkscape:label="pred"
       transform="matrix(1.2590862,-0.00520536,0.0032835,0.79421323,0,0)"><tspan
         sodipodi:role="line"
         id="tspan101-7-7"
         style="font-style:normal;font-variant:normal;font-weight:normal;font-stretch:normal;font-family:Arial;-inkscape-font-specification:Arial;fill:#000000;fill-opacity:1;stroke:none;stroke-width:0.971113;stroke-dasharray:none"
         x="58.072796"
         y="205.33151">disadvantaged</tspan></text>
    <text
       xml:space="preserve"
       style="font-size:11.6534px;font-family:'Times New Roman';-inkscape-font-specification:'Times New Roman, ';fill:none;fill-rule:evenodd;stroke:#000000;stroke-width:0.971113;stroke-linecap:butt;stroke-linejoin:round;stroke-dasharray:none;stroke-opacity:1"
       x="58.182858"
       y="219.25172"
       id="text101-1-96-3"
       inkscape:label="pred"
       transform="matrix(1.2590862,-0.00520536,0.0032835,0.79421323,0,0)"><tspan
         sodipodi:role="line"
         id="tspan101-7-7-2"
         style="font-style:normal;font-variant:normal;font-weight:normal;font-stretch:normal;font-family:Arial;-inkscape-font-specification:Arial;fill:#000000;fill-opacity:1;stroke:none;stroke-width:0.971113;stroke-dasharray:none"
         x="58.182858"
         y="219.25172">advantaged</tspan></text>
    <path
       d="M 12.15895,90.95861 91.284376,90.40257"
       clip-path="url(#pf361c1727c-1-9)"
       style="opacity:1;fill:none;stroke:#000000;stroke-width:1.1;stroke-linecap:butt;stroke-linejoin:round;stroke-dasharray:none;stroke-dashoffset:0;stroke-opacity:1"
       id="path86-8-1"
       sodipodi:nodetypes="cc"
       transform="matrix(0.95778664,1.7452008e-4,1.7452231e-4,0.99999926,1.1715406,24.441374)"
       inkscape:label="disadvantaged-line" />
    <path
       d="M 12.15895,90.95861 91.284376,90.40257"
       clip-path="url(#pf361c1727c-1)"
       style="opacity:1;fill:none;stroke:#000000;stroke-width:1.5;stroke-linecap:butt;stroke-linejoin:round;stroke-dasharray:5.55, 2.4;stroke-dashoffset:0;stroke-opacity:1"
       id="path86-8"
       sodipodi:nodetypes="cc"
       transform="matrix(1.0905934,-0.00132013,-0.00132008,0.77128253,-8.560606,35.25963)"
       inkscape:label="disadvantaged-line" />
    <text
       xml:space="preserve"
       style="font-size:12px;font-family:'Times New Roman';-inkscape-font-specification:'Times New Roman, ';opacity:1;fill:none;fill-rule:evenodd;stroke:#000000;stroke-width:1;stroke-linecap:butt;stroke-linejoin:round;stroke-dasharray:none;stroke-opacity:1"
       x="220.13544"
       y="338.44775"
       id="text101"
       inkscape:label="scores"
       transform="matrix(1.2227145,-0.00505499,0.00318865,0.77127049,-217.57774,-165.51168)"><tspan
         sodipodi:role="line"
         id="tspan101"
         style="font-style:normal;font-variant:normal;font-weight:normal;font-stretch:normal;font-family:Arial;-inkscape-font-specification:Arial;fill:#000000;fill-opacity:1;stroke:none;stroke-width:1;stroke-dasharray:none"
         x="220.13544"
         y="338.44775">score distributions</tspan></text>
    <text
       xml:space="preserve"
       style="font-size:11.6534px;font-family:'Times New Roman';-inkscape-font-specification:'Times New Roman, ';fill:none;fill-rule:evenodd;stroke:#000000;stroke-width:0.971113;stroke-linecap:butt;stroke-linejoin:round;stroke-dasharray:none;stroke-opacity:1"
       x="42.078423"
       y="190.68625"
       id="text101-4"
       inkscape:label="groups"
       transform="matrix(1.2590862,-0.00520536,0.0032835,0.79421323,0,0)"><tspan
         sodipodi:role="line"
         id="tspan101-0"
         style="font-style:normal;font-variant:normal;font-weight:normal;font-stretch:normal;font-family:Arial;-inkscape-font-specification:Arial;fill:#000000;fill-opacity:1;stroke:none;stroke-width:0.971113;stroke-dasharray:none"
         x="42.078423"
         y="190.68625">groups</tspan></text>
    <text
       xml:space="preserve"
       style="font-size:11.6534px;font-family:'Times New Roman';-inkscape-font-specification:'Times New Roman, ';fill:none;fill-rule:evenodd;stroke:#000000;stroke-width:0.971113;stroke-linecap:butt;stroke-linejoin:round;stroke-dasharray:none;stroke-opacity:1"
       x="77.914383"
       y="135.28583"
       id="text101-1"
       inkscape:label="pred"
       transform="matrix(1.2590862,-0.00520536,0.0032835,0.79421323,0,0)"><tspan
         sodipodi:role="line"
         id="tspan101-7"
         style="font-style:normal;font-variant:normal;font-weight:normal;font-stretch:normal;font-family:Arial;-inkscape-font-specification:Arial;fill:#000000;fill-opacity:1;stroke:none;stroke-width:0.971113;stroke-dasharray:none"
         x="77.914383"
         y="135.28583">predicted</tspan></text>
    <text
       xml:space="preserve"
       style="font-size:11.6534px;font-family:'Times New Roman';-inkscape-font-specification:'Times New Roman, ';fill:none;fill-rule:evenodd;stroke:#000000;stroke-width:0.971113;stroke-linecap:butt;stroke-linejoin:round;stroke-dasharray:none;stroke-opacity:1"
       x="77.40184"
       y="148.39589"
       id="text101-1-9"
       inkscape:label="true"
       transform="matrix(1.2590862,-0.00520536,0.0032835,0.79421323,0,0)"><tspan
         sodipodi:role="line"
         id="tspan101-7-8"
         style="font-style:normal;font-variant:normal;font-weight:normal;font-stretch:normal;font-family:Arial;-inkscape-font-specification:Arial;fill:#000000;fill-opacity:1;stroke:none;stroke-width:0.971113;stroke-dasharray:none"
         x="77.40184"
         y="148.39589">true</tspan></text>
    <text
       xml:space="preserve"
       style="font-size:11.6534px;font-family:'Times New Roman';-inkscape-font-specification:'Times New Roman, ';fill:none;fill-rule:evenodd;stroke:#000000;stroke-width:0.971113;stroke-linecap:butt;stroke-linejoin:round;stroke-dasharray:none;stroke-opacity:1"
       x="75.752594"
       y="160.95947"
       id="text101-1-9-0"
       inkscape:label="true"
       transform="matrix(1.2590862,-0.00520536,0.0032835,0.79421323,0,0)"><tspan
         sodipodi:role="line"
         style="font-style:normal;font-variant:normal;font-weight:normal;font-stretch:normal;font-family:Arial;-inkscape-font-specification:Arial;fill:#000000;fill-opacity:1;stroke:none;stroke-width:0.971113;stroke-dasharray:none"
         x="75.752594"
         y="160.95947"
         id="tspan85">decision</tspan></text>
    <text
       xml:space="preserve"
       style="font-style:normal;font-variant:normal;font-weight:normal;font-stretch:normal;font-size:11.6534px;font-family:Arial;-inkscape-font-specification:Arial;opacity:1;fill:#000000;fill-opacity:1;fill-rule:evenodd;stroke:none;stroke-width:0.97111;stroke-linecap:butt;stroke-linejoin:round;stroke-dasharray:none;stroke-opacity:1"
       x="117.84112"
       y="172.22871"
       id="text103"
       transform="matrix(1.2590862,-0.00520536,0.00328351,0.79421322,0,0)"><tspan
         sodipodi:role="line"
         id="tspan103"
         style="stroke-width:0.971113"
         x="117.84112"
         y="172.22871" /></text>
    <rect
       style="opacity:1;fill:#ff7f0e;fill-opacity:1;fill-rule:evenodd;stroke:#000000;stroke-width:0.308814;stroke-linecap:butt;stroke-linejoin:round;stroke-dasharray:none;stroke-opacity:1"
       id="rect103"
       width="11.626932"
       height="7.1124539"
       x="56.962986"
       y="157.18347"
       transform="rotate(-0.23687273)" />
    <rect
       style="fill:#1f77b4;fill-opacity:1;fill-rule:evenodd;stroke:#000000;stroke-width:0.308814;stroke-linecap:butt;stroke-linejoin:round;stroke-dasharray:none;stroke-opacity:1"
       id="rect103-6"
       width="11.626932"
       height="7.1124539"
       x="56.962986"
       y="168.23918"
       transform="rotate(-0.23687273)" />
    <rect
       style="fill:none;fill-rule:evenodd;stroke:#000000;stroke-width:0.564087;stroke-linecap:butt;stroke-linejoin:round;stroke-dasharray:none;stroke-opacity:1"
       id="rect83"
       width="142.17232"
       height="95.702721"
       x="43.561287"
       y="84.588722"
       transform="rotate(-0.23687292)" />
    <path
       style="fill:#1f77b4;fill-opacity:1;fill-rule:evenodd;stroke:#000000;stroke-width:2.39568;stroke-linecap:butt;stroke-linejoin:round;stroke-dasharray:none;stroke-opacity:0.239044"
       d="m 89.235842,125.51444 -33.123214,0.13712"
       id="path103-1"
       sodipodi:nodetypes="cc" />
    <text
       xml:space="preserve"
       style="font-size:11.6534px;font-family:Arial;-inkscape-font-specification:Arial;fill:#000000;fill-opacity:1;fill-rule:evenodd;stroke:none;stroke-width:0.485557;stroke-linecap:butt;stroke-linejoin:round;stroke-dasharray:none;stroke-opacity:1"
       x="75.488365"
       y="171.90448"
       id="text86"
       transform="matrix(1.2590862,-0.00520536,0.00328351,0.79421322,0,0)"><tspan
         sodipodi:role="line"
         id="tspan86"
         style="fill:#000000;fill-opacity:1;stroke:none;stroke-width:0.485556"
         x="75.488365"
         y="171.90448">boundary</tspan></text>
  </g>
  <path
     style="fill:#1f77b4;fill-opacity:1;fill-rule:evenodd;stroke:#000000;stroke-width:2;stroke-linecap:butt;stroke-linejoin:round;stroke-dasharray:none;stroke-opacity:0.239044"
     d="M 236.20545,41.385584 V 311.94499"
     id="path103"
     sodipodi:nodetypes="cc"
     inkscape:label="decision-boundary" />
</svg>
