<?xml version="1.0" encoding="UTF-8" standalone="no"?>
<svg
   width="460.8pt"
   height="345.6pt"
   viewBox="0 0 460.8 345.6"
   version="1.1"
   id="svg81"
   sodipodi:docname="figure1-paper-edit.svg"
   inkscape:version="1.3.2 (091e20e, 2023-11-25)"
   xmlns:inkscape="http://www.inkscape.org/namespaces/inkscape"
   xmlns:sodipodi="http://sodipodi.sourceforge.net/DTD/sodipodi-0.dtd"
   xmlns:xlink="http://www.w3.org/1999/xlink"
   xmlns="http://www.w3.org/2000/svg"
   xmlns:svg="http://www.w3.org/2000/svg"
   xmlns:rdf="http://www.w3.org/1999/02/22-rdf-syntax-ns#"
   xmlns:cc="http://creativecommons.org/ns#"
   xmlns:dc="http://purl.org/dc/elements/1.1/">
  <sodipodi:namedview
     id="namedview81"
     pagecolor="#ffffff"
     bordercolor="#000000"
     borderopacity="0.25"
     inkscape:showpageshadow="2"
     inkscape:pageopacity="0.0"
     inkscape:pagecheckerboard="0"
     inkscape:deskcolor="#d1d1d1"
     inkscape:document-units="pt"
     inkscape:zoom="1.0350375"
     inkscape:cx="142.02384"
     inkscape:cy="285.01383"
     inkscape:window-width="1920"
     inkscape:window-height="1027"
     inkscape:window-x="0"
     inkscape:window-y="25"
     inkscape:window-maximized="1"
     inkscape:current-layer="svg81" />
  <metadata
     id="metadata1">
    <rdf:RDF>
      <cc:Work>
        <dc:type
           rdf:resource="http://purl.org/dc/dcmitype/StillImage" />
        <dc:date>2024-05-28T14:05:04.164233</dc:date>
        <dc:format>image/svg+xml</dc:format>
        <dc:creator>
          <cc:Agent>
            <dc:title>Matplotlib v3.9.0, https://matplotlib.org/</dc:title>
          </cc:Agent>
        </dc:creator>
      </cc:Work>
    </rdf:RDF>
  </metadata>
  <defs
     id="defs1">
    <style
       type="text/css"
       id="style1">*{stroke-linejoin: round; stroke-linecap: butt}</style>
    <clipPath
       id="pf361c1727c-1-9">
      <rect
         x="57.599998"
         y="41.472"
         width="357.12"
         height="266.112"
         id="rect93-7-41" />
    </clipPath>
    <clipPath
       id="pf361c1727c-1">
      <rect
         x="57.599998"
         y="41.472"
         width="357.12"
         height="266.112"
         id="rect93-7" />
    </clipPath>
  </defs>
  <g
     id="figure_1"
     style="display:inline">
    <g
       id="patch_1">
      <path
         d="M 0,345.6 H 460.8 V 0 H 0 Z"
         style="fill:#ffffff"
         id="path1" />
    </g>
    <g
       id="axes_1"
       style="display:inline">
      <g
         id="patch_2">
        <path
           d="M 57.6,307.584 H 414.72 V 41.472 H 57.6 Z"
           style="fill:#ffffff"
           id="path2" />
      </g>
      <g
         id="matplotlib.axis_1">
        <g
           id="xtick_1">
          <g
             id="line2d_1">
            <defs
               id="defs2">
              <path
                 id="m9148ae4dce"
                 d="M 0,0 V 3.5"
                 style="stroke:#000000;stroke-width:0.8" />
            </defs>
            <g
               id="g2">
              <use
                 xlink:href="#m9148ae4dce"
                 x="87.360001"
                 y="307.58401"
                 style="stroke:#000000;stroke-width:0.8"
                 id="use2" />
            </g>
          </g>
          <g
             id="text_1">
            <!-- −10 -->
            <g
               transform="matrix(0.1,0,0,-0.1,76.807656,322.18244)"
               id="g5">
              <defs
                 id="defs3">
                <path
                   id="DejaVuSans-2212"
                   d="M 678,2272 H 4684 V 1741 H 678 Z"
                   transform="scale(0.015625)" />
                <path
                   id="DejaVuSans-31"
                   d="M 794,531 H 1825 V 4091 L 703,3866 v 575 l 1116,225 h 631 V 531 H 3481 V 0 H 794 Z"
                   transform="scale(0.015625)" />
                <path
                   id="DejaVuSans-30"
                   d="m 2034,4250 q -487,0 -733,-480 -245,-479 -245,-1442 0,-959 245,-1439 246,-480 733,-480 491,0 736,480 246,480 246,1439 0,963 -246,1442 -245,480 -736,480 z m 0,500 q 785,0 1199,-621 414,-620 414,-1801 0,-1178 -414,-1799 -414,-620 -1199,-620 -784,0 -1198,620 -414,621 -414,1799 0,1181 414,1801 414,621 1198,621 z"
                   transform="scale(0.015625)" />
              </defs>
              <use
                 xlink:href="#DejaVuSans-2212"
                 id="use3" />
              <use
                 xlink:href="#DejaVuSans-31"
                 x="83.789062"
                 id="use4" />
              <use
                 xlink:href="#DejaVuSans-30"
                 x="147.41211"
                 id="use5" />
            </g>
          </g>
        </g>
        <g
           id="xtick_2">
          <g
             id="line2d_2">
            <g
               id="g6">
              <use
                 xlink:href="#m9148ae4dce"
                 x="161.75999"
                 y="307.58401"
                 style="stroke:#000000;stroke-width:0.8"
                 id="use6" />
            </g>
          </g>
          <g
             id="text_2">
            <!-- −5 -->
            <g
               transform="matrix(0.1,0,0,-0.1,154.38891,322.18244)"
               id="g8">
              <defs
                 id="defs6">
                <path
                   id="DejaVuSans-35"
                   d="M 691,4666 H 3169 V 4134 H 1269 V 2991 q 137,47 274,70 138,23 276,23 781,0 1237,-428 457,-428 457,-1159 Q 3513,744 3044,326 2575,-91 1722,-91 1428,-91 1123,-41 819,9 494,109 v 635 q 281,-153 581,-228 300,-75 634,-75 541,0 856,284 316,284 316,772 0,487 -316,771 -315,285 -856,285 -253,0 -505,-56 -251,-56 -513,-175 z"
                   transform="scale(0.015625)" />
              </defs>
              <use
                 xlink:href="#DejaVuSans-2212"
                 id="use7" />
              <use
                 xlink:href="#DejaVuSans-35"
                 x="83.789062"
                 id="use8" />
            </g>
          </g>
        </g>
        <g
           id="xtick_3">
          <g
             id="line2d_3">
            <g
               id="g9">
              <use
                 xlink:href="#m9148ae4dce"
                 x="236.16"
                 y="307.58401"
                 style="stroke:#000000;stroke-width:0.8"
                 id="use9" />
            </g>
          </g>
          <g
             id="text_3">
            <!-- 0 -->
            <g
               transform="matrix(0.1,0,0,-0.1,232.97875,322.18244)"
               id="g10">
              <use
                 xlink:href="#DejaVuSans-30"
                 id="use10" />
            </g>
          </g>
        </g>
        <g
           id="xtick_4">
          <g
             id="line2d_4">
            <g
               id="g11">
              <use
                 xlink:href="#m9148ae4dce"
                 x="310.56"
                 y="307.58401"
                 style="stroke:#000000;stroke-width:0.8"
                 id="use11" />
            </g>
          </g>
          <g
             id="text_4">
            <!-- 5 -->
            <g
               transform="matrix(0.1,0,0,-0.1,307.37875,322.18244)"
               id="g12">
              <use
                 xlink:href="#DejaVuSans-35"
                 id="use12" />
            </g>
          </g>
        </g>
        <g
           id="xtick_5">
          <g
             id="line2d_5">
            <g
               id="g13">
              <use
                 xlink:href="#m9148ae4dce"
                 x="384.95999"
                 y="307.58401"
                 style="stroke:#000000;stroke-width:0.8"
                 id="use13" />
            </g>
          </g>
          <g
             id="text_5">
            <!-- 10 -->
            <g
               transform="matrix(0.1,0,0,-0.1,378.5975,322.18244)"
               id="g15">
              <use
                 xlink:href="#DejaVuSans-31"
                 id="use14" />
              <use
                 xlink:href="#DejaVuSans-30"
                 x="63.623047"
                 id="use15" />
            </g>
          </g>
        </g>
      </g>
      <g
         id="matplotlib.axis_2">
        <g
           id="ytick_1">
          <g
             id="line2d_6">
            <defs
               id="defs25">
              <path
                 id="m4468996f95"
                 d="M 0,0 H -3.5"
                 style="stroke:#000000;stroke-width:0.8" />
            </defs>
            <g
               id="g26">
              <use
                 xlink:href="#m4468996f95"
                 x="57.599998"
                 y="307.58401"
                 style="stroke:#000000;stroke-width:0.8"
                 id="use26" />
            </g>
          </g>
          <g
             id="text_7">
            <!-- 0.00 -->
            <g
               transform="matrix(0.1,0,0,-0.1,28.334375,311.38322)"
               id="g30">
              <defs
                 id="defs26">
                <path
                   id="DejaVuSans-2e"
                   d="m 684,794 h 660 V 0 H 684 Z"
                   transform="scale(0.015625)" />
              </defs>
              <use
                 xlink:href="#DejaVuSans-30"
                 id="use27" />
              <use
                 xlink:href="#DejaVuSans-2e"
                 x="63.623047"
                 id="use28" />
              <use
                 xlink:href="#DejaVuSans-30"
                 x="95.410156"
                 id="use29" />
              <use
                 xlink:href="#DejaVuSans-30"
                 x="159.0332"
                 id="use30" />
            </g>
          </g>
        </g>
        <g
           id="ytick_2">
          <g
             id="line2d_7">
            <g
               id="g31">
              <use
                 xlink:href="#m4468996f95"
                 x="57.599998"
                 y="254.3616"
                 style="stroke:#000000;stroke-width:0.8"
                 id="use31" />
            </g>
          </g>
          <g
             id="text_8">
            <!-- 0.05 -->
            <g
               transform="matrix(0.1,0,0,-0.1,28.334375,258.16082)"
               id="g35">
              <use
                 xlink:href="#DejaVuSans-30"
                 id="use32" />
              <use
                 xlink:href="#DejaVuSans-2e"
                 x="63.623047"
                 id="use33" />
              <use
                 xlink:href="#DejaVuSans-30"
                 x="95.410156"
                 id="use34" />
              <use
                 xlink:href="#DejaVuSans-35"
                 x="159.0332"
                 id="use35" />
            </g>
          </g>
        </g>
        <g
           id="ytick_3">
          <g
             id="line2d_8">
            <g
               id="g36">
              <use
                 xlink:href="#m4468996f95"
                 x="57.599998"
                 y="201.13921"
                 style="stroke:#000000;stroke-width:0.8"
                 id="use36" />
            </g>
          </g>
          <g
             id="text_9">
            <!-- 0.10 -->
            <g
               transform="matrix(0.1,0,0,-0.1,28.334375,204.93842)"
               id="g40">
              <use
                 xlink:href="#DejaVuSans-30"
                 id="use37" />
              <use
                 xlink:href="#DejaVuSans-2e"
                 x="63.623047"
                 id="use38" />
              <use
                 xlink:href="#DejaVuSans-31"
                 x="95.410156"
                 id="use39" />
              <use
                 xlink:href="#DejaVuSans-30"
                 x="159.0332"
                 id="use40" />
            </g>
          </g>
        </g>
        <g
           id="ytick_4">
          <g
             id="line2d_9">
            <g
               id="g41">
              <use
                 xlink:href="#m4468996f95"
                 x="57.599998"
                 y="147.91679"
                 style="stroke:#000000;stroke-width:0.8"
                 id="use41" />
            </g>
          </g>
          <g
             id="text_10">
            <!-- 0.15 -->
            <g
               transform="matrix(0.1,0,0,-0.1,28.334375,151.71602)"
               id="g45">
              <use
                 xlink:href="#DejaVuSans-30"
                 id="use42" />
              <use
                 xlink:href="#DejaVuSans-2e"
                 x="63.623047"
                 id="use43" />
              <use
                 xlink:href="#DejaVuSans-31"
                 x="95.410156"
                 id="use44" />
              <use
                 xlink:href="#DejaVuSans-35"
                 x="159.0332"
                 id="use45" />
            </g>
          </g>
        </g>
        <g
           id="ytick_5">
          <g
             id="line2d_10">
            <g
               id="g46">
              <use
                 xlink:href="#m4468996f95"
                 x="57.599998"
                 y="94.694397"
                 style="stroke:#000000;stroke-width:0.8"
                 id="use46" />
            </g>
          </g>
          <g
             id="text_11">
            <!-- 0.20 -->
            <g
               transform="matrix(0.1,0,0,-0.1,28.334375,98.493619)"
               id="g50">
              <defs
                 id="defs46">
                <path
                   id="DejaVuSans-32"
                   d="M 1228,531 H 3431 V 0 H 469 v 531 q 359,372 979,998 621,627 780,809 303,340 423,576 121,236 121,464 0,372 -261,606 -261,235 -680,235 -297,0 -627,-103 -329,-103 -704,-313 v 638 q 381,153 712,231 332,78 607,78 725,0 1156,-363 431,-362 431,-968 0,-288 -108,-546 -107,-257 -392,-607 -78,-91 -497,-524 Q 1991,1309 1228,531 Z"
                   transform="scale(0.015625)" />
              </defs>
              <use
                 xlink:href="#DejaVuSans-30"
                 id="use47" />
              <use
                 xlink:href="#DejaVuSans-2e"
                 x="63.623047"
                 id="use48" />
              <use
                 xlink:href="#DejaVuSans-32"
                 x="95.410156"
                 id="use49" />
              <use
                 xlink:href="#DejaVuSans-30"
                 x="159.0332"
                 id="use50" />
            </g>
          </g>
        </g>
        <g
           id="ytick_6">
          <g
             id="line2d_11">
            <g
               id="g51">
              <use
                 xlink:href="#m4468996f95"
                 x="57.599998"
                 y="41.472"
                 style="stroke:#000000;stroke-width:0.8"
                 id="use51" />
            </g>
          </g>
          <g
             id="text_12">
            <!-- 0.25 -->
            <g
               transform="matrix(0.1,0,0,-0.1,28.334375,45.271219)"
               id="g55">
              <use
                 xlink:href="#DejaVuSans-30"
                 id="use52" />
              <use
                 xlink:href="#DejaVuSans-2e"
                 x="63.623047"
                 id="use53" />
              <use
                 xlink:href="#DejaVuSans-32"
                 x="95.410156"
                 id="use54" />
              <use
                 xlink:href="#DejaVuSans-35"
                 x="159.0332"
                 id="use55" />
            </g>
          </g>
        </g>
        <g
           id="text_13">
          <!-- probability density -->
          <g
             transform="matrix(0,-0.1,-0.1,0,22.254687,221.12566)"
             id="g74">
            <defs
               id="defs55">
              <path
                 id="DejaVuSans-62"
                 d="m 3116,1747 q 0,634 -261,995 -261,361 -717,361 -457,0 -718,-361 -261,-361 -261,-995 0,-634 261,-995 261,-361 718,-361 456,0 717,361 261,361 261,995 z M 1159,2969 q 182,312 458,463 277,152 661,152 638,0 1036,-506 399,-506 399,-1331 Q 3713,922 3314,415 2916,-91 2278,-91 1894,-91 1617,61 1341,213 1159,525 V 0 H 581 v 4863 h 578 z"
                 transform="scale(0.015625)" />
              <path
                 id="DejaVuSans-61"
                 d="m 2194,1759 q -697,0 -966,-159 -269,-159 -269,-544 0,-306 202,-486 202,-179 548,-179 479,0 768,339 289,339 289,901 v 128 z m 1147,238 V 0 H 2766 V 531 Q 2569,213 2275,61 1981,-91 1556,-91 q -537,0 -855,302 -317,302 -317,808 0,590 395,890 396,300 1180,300 h 807 v 57 q 0,397 -261,614 -261,217 -733,217 -300,0 -585,-72 -284,-72 -546,-216 v 532 q 315,122 612,182 297,61 578,61 760,0 1135,-394 375,-393 375,-1193 z"
                 transform="scale(0.015625)" />
              <path
                 id="DejaVuSans-69"
                 d="m 603,3500 h 575 V 0 H 603 Z m 0,1363 h 575 V 4134 H 603 Z"
                 transform="scale(0.015625)" />
              <path
                 id="DejaVuSans-6c"
                 d="m 603,4863 h 575 V 0 H 603 Z"
                 transform="scale(0.015625)" />
              <path
                 id="DejaVuSans-74"
                 d="M 1172,4494 V 3500 H 2356 V 3053 H 1172 V 1153 q 0,-428 117,-550 117,-122 477,-122 h 590 V 0 H 1766 Q 1100,0 847,248 594,497 594,1153 V 3053 H 172 v 447 h 422 v 994 z"
                 transform="scale(0.015625)" />
              <path
                 id="DejaVuSans-79"
                 d="m 2059,-325 q -243,-625 -475,-815 -231,-191 -618,-191 H 506 v 481 h 338 q 237,0 368,113 132,112 291,531 L 1606,56 191,3500 H 800 L 1894,763 2988,3500 h 609 z"
                 transform="scale(0.015625)" />
              <path
                 id="DejaVuSans-20"
                 transform="scale(0.015625)" />
              <path
                 id="DejaVuSans-6e"
                 d="M 3513,2113 V 0 h -575 v 2094 q 0,497 -194,743 -194,247 -581,247 -466,0 -735,-297 -269,-296 -269,-809 V 0 H 581 v 3500 h 578 v -544 q 207,316 486,472 280,156 646,156 603,0 912,-373 310,-373 310,-1098 z"
                 transform="scale(0.015625)" />
            </defs>
            <path
               id="use56"
               d="m 18.109375,8.203125 v -29 H 9.078125 V 54.6875 h 9.03125 v -8.296875 q 2.84375,4.875 7.15625,7.234375 Q 29.59375,56 35.59375,56 q 9.96875,0 16.1875,-7.90625 6.234375,-7.90625 6.234375,-20.796875 0,-12.890625 -6.234375,-20.8125 -6.21875,-7.90625 -16.1875,-7.90625 -6,0 -10.328125,2.375 -4.3125,2.375 -7.15625,7.25 z M 48.6875,27.296875 q 0,9.90625 -4.078125,15.546875 -4.078125,5.640625 -11.203125,5.640625 -7.140625,0 -11.21875,-5.640625 -4.078125,-5.640625 -4.078125,-15.546875 0,-9.90625 4.078125,-15.546875 4.078125,-5.640625 11.21875,-5.640625 7.125,0 11.203125,5.640625 4.078125,5.640625 4.078125,15.546875 z"
               style="stroke-width:0.015625" />
            <path
               id="use57"
               d="m 104.58594,46.296875 q -1.51563,0.875 -3.29688,1.28125 Q 99.507812,48 97.367187,48 89.742187,48 85.664062,43.046875 81.585937,38.09375 81.585937,28.8125 V 0 h -9.03125 v 54.6875 h 9.03125 v -8.5 q 2.84375,4.984375 7.375,7.390625 Q 93.507812,56 100.00781,56 q 0.92188,0 2.04688,-0.125 1.125,-0.109375 2.48437,-0.359375 z"
               style="stroke-width:0.015625" />
            <path
               id="use58"
               d="m 132.94922,48.390625 q -7.21875,0 -11.42188,-5.640625 -4.20312,-5.640625 -4.20312,-15.453125 0,-9.8125 4.17187,-15.453125 4.1875,-5.640625 11.45313,-5.640625 7.1875,0 11.375,5.65625 4.20312,5.671875 4.20312,15.4375 0,9.71875 -4.20312,15.40625 -4.1875,5.6875 -11.375,5.6875 z m 0,7.609375 q 11.71875,0 18.40625,-7.625 6.70312,-7.609375 6.70312,-21.078125 0,-13.421875 -6.70312,-21.078125 -6.6875,-7.640625 -18.40625,-7.640625 -11.76563,0 -18.4375,7.640625 -6.65625,7.65625 -6.65625,21.078125 0,13.46875 6.65625,21.078125 6.67187,7.625 18.4375,7.625 z"
               style="stroke-width:0.015625" />
            <use
               xlink:href="#DejaVuSans-62"
               x="163.52148"
               id="use59" />
            <use
               xlink:href="#DejaVuSans-61"
               x="226.99805"
               id="use60" />
            <use
               xlink:href="#DejaVuSans-62"
               x="288.27734"
               id="use61" />
            <use
               xlink:href="#DejaVuSans-69"
               x="351.75391"
               id="use62" />
            <use
               xlink:href="#DejaVuSans-6c"
               x="379.53711"
               id="use63" />
            <use
               xlink:href="#DejaVuSans-69"
               x="407.32031"
               id="use64" />
            <use
               xlink:href="#DejaVuSans-74"
               x="435.10352"
               id="use65" />
            <use
               xlink:href="#DejaVuSans-79"
               x="474.3125"
               id="use66" />
            <use
               xlink:href="#DejaVuSans-20"
               x="533.49219"
               id="use67" />
            <path
               id="use68"
               d="m 610.68555,46.390625 v 29.59375 h 8.98437 V 0 h -8.98437 v 8.203125 q -2.82813,-4.875 -7.15625,-7.25 -4.3125,-2.375 -10.375,-2.375 -9.90625,0 -16.14063,7.90625 -6.21875,7.921875 -6.21875,20.8125 0,12.890625 6.21875,20.796875 Q 583.24805,56 593.1543,56 q 6.0625,0 10.375,-2.375 4.32812,-2.359375 7.15625,-7.234375 z m -30.60938,-19.09375 q 0,-9.90625 4.07813,-15.546875 4.07812,-5.640625 11.20312,-5.640625 7.125,0 11.21875,5.640625 4.10938,5.640625 4.10938,15.546875 0,9.90625 -4.10938,15.546875 -4.09375,5.640625 -11.21875,5.640625 -7.125,0 -11.20312,-5.640625 -4.07813,-5.640625 -4.07813,-15.546875 z"
               style="stroke-width:0.015625" />
            <path
               id="use69"
               d="m 684.95898,29.59375 v -4.390625 h -41.3125 q 0.59375,-9.28125 5.59375,-14.140625 5,-4.859375 13.9375,-4.859375 5.17188,0 10.03125,1.265625 4.85938,1.265625 9.65625,3.8125 v -8.5 q -4.84375,-2.046875 -9.92187,-3.125 -5.07813,-1.078125 -10.29688,-1.078125 -13.09375,0 -20.73437,7.609375 -7.64063,7.625 -7.64063,20.625 0,13.421875 7.25,21.296875 Q 648.77148,56 661.08398,56 q 11.03125,0 17.45313,-7.109375 6.42187,-7.09375 6.42187,-19.296875 z m -8.98437,2.640625 q -0.0937,7.359375 -4.125,11.75 -4.03125,4.40625 -10.67188,4.40625 -7.51562,0 -12.03125,-4.25 -4.51562,-4.25 -5.20312,-11.96875 z"
               style="stroke-width:0.015625" />
            <use
               xlink:href="#DejaVuSans-6e"
               x="690.2793"
               id="use70" />
            <path
               id="use71"
               d="m 797.93945,53.078125 v -8.5 Q 794.14258,46.53125 790.0332,47.5 q -4.09375,0.984375 -8.5,0.984375 -6.6875,0 -10.03125,-2.046875 -3.34375,-2.046875 -3.34375,-6.15625 0,-3.125 2.39063,-4.90625 2.39062,-1.78125 9.625,-3.390625 l 3.07812,-0.6875 q 9.5625,-2.046875 13.59375,-5.78125 4.03125,-3.734375 4.03125,-10.421875 0,-7.625 -6.03125,-12.078125 -6.03125,-4.4375 -16.57812,-4.4375 -4.39063,0 -9.15625,0.859375 Q 764.3457,0.296875 759.08008,2 v 9.28125 q 4.98437,-2.59375 9.8125,-3.890625 4.82812,-1.28125 9.57812,-1.28125 6.34375,0 9.75,2.171875 3.42188,2.171875 3.42188,6.125 0,3.65625 -2.46875,5.609375 -2.45313,1.953125 -10.8125,3.765625 l -3.125,0.734375 q -8.34375,1.75 -12.0625,5.390625 -3.70313,3.640625 -3.70313,9.984375 0,7.71875 5.46875,11.90625 Q 770.4082,56 780.4707,56 q 4.96875,0 9.35938,-0.734375 4.40625,-0.71875 8.10937,-2.1875 z"
               style="stroke-width:0.015625" />
            <use
               xlink:href="#DejaVuSans-69"
               x="805.75781"
               id="use72" />
            <use
               xlink:href="#DejaVuSans-74"
               x="833.54102"
               id="use73" />
            <use
               xlink:href="#DejaVuSans-79"
               x="872.75"
               id="use74" />
          </g>
        </g>
      </g>
      <g
         id="line2d_12">
        <path
           d="m 124.07926,307.58359 10.88921,-0.0994 2.7223,-0.23654 4.08345,-0.54417 2.04173,-0.621 2.7223,-0.95687 1.36115,-0.76742 3.40287,-2.42448 0.68058,-0.59477 0.68058,-0.78017 0.68057,-1.01613 1.36115,-2.6575 4.08345,-9.08097 1.36115,-3.98944 1.36116,-4.60349 1.36115,-5.45918 2.04172,-9.69783 1.36115,-7.19845 1.36115,-8.49577 2.72231,-19.25235 1.36115,-11.10221 2.04172,-16.92663 1.36115,-8.72117 1.36115,-8.2098 1.36115,-10.14284 1.36115,-13.00483 1.36116,-13.83225 1.36115,-11.42497 2.04172,-13.21711 3.40288,-21.67364 0.68057,-2.960566 0.68058,-2.184952 0.68058,-1.492173 0.68057,-0.960874 0.68058,-0.580746 0.68057,-0.237711 0.68058,0.215517 0.68057,0.847278 0.68058,1.602884 0.68057,2.358035 1.36115,6.439238 2.04173,11.59442 3.40288,21.39355 2.04172,13.45354 1.36115,10.84319 4.76403,41.6566 4.08345,31.50196 2.04173,12.88233 3.40288,19.14914 1.36115,7.27598 1.36115,6.06803 1.36115,4.72879 2.7223,8.15437 1.36115,3.25798 0.68058,1.14727 1.36115,1.5589 1.36115,1.4024 2.7223,3.50073 0.68057,0.60345 0.68058,0.41145 2.04173,0.6892 3.40287,1.31563 2.7223,0.34786 4.76403,0.61834 4.08345,0.0546 4.76403,0.04 3.40288,0.0357 v 0"
           clip-path="url(#p863e9fa9dc)"
           style="fill:none;stroke:#ff7f0e;stroke-width:1.5;stroke-dasharray:5.55, 2.4;stroke-dashoffset:0"
           id="path74" />
      </g>
      <g
         id="line2d_13">
        <path
           d="m 203.93431,307.58359 5.57253,-0.087 3.48283,-0.26454 2.78626,-0.48765 3.48283,-0.76058 2.78627,-0.87393 1.39313,-0.60019 1.39313,-0.99953 1.39314,-1.37909 1.39313,-1.66454 1.39313,-2.264 1.39313,-2.92163 2.0897,-5.05525 1.39313,-4.06546 1.39313,-4.96829 2.78627,-10.92913 1.39313,-6.35249 1.39313,-7.95369 2.0897,-13.87892 2.0897,-15.21698 2.0897,-16.76019 8.35879,-70.09544 1.39313,-9.4226 1.39314,-8.03158 2.78626,-14.28327 1.39313,-6.18463 0.69657,-2.315687 0.69656,-1.524737 0.69657,-0.718147 0.69657,-0.08537 0.69656,0.313434 0.69657,0.591771 0.69656,0.923867 0.69657,1.370409 1.39313,3.93974 1.39314,4.73603 0.69656,2.91392 0.69657,3.62105 1.39313,9.216 2.0897,14.24769 2.0897,12.94865 1.39313,10.56864 3.48283,29.22735 2.0897,18.55345 2.78626,21.52564 2.78627,20.63415 1.39313,9.06308 1.39313,7.32139 1.39313,5.36818 4.87596,15.29689 1.39314,3.36448 2.0897,4.3672 1.39313,2.39361 1.39313,1.9143 1.39313,1.50714 1.39313,1.05543 1.39314,0.58673 6.96566,1.86273 2.0897,0.2007 5.57252,0.30026 10.4485,0.19888 7.66222,0.0117 v 0"
           clip-path="url(#p863e9fa9dc)"
           style="fill:none;stroke:#1f77b4;stroke-width:1.5;stroke-dasharray:5.55, 2.4;stroke-dashoffset:0"
           id="path75" />
      </g>
      <g
         id="line2d_14">
        <path
           d="m 156.9235,307.58357 5.30312,-0.10434 9.28046,-0.57996 1.98867,-0.34483 1.32578,-0.48167 1.32578,-0.69864 1.98867,-1.34262 2.65156,-2.16512 1.32578,-1.21943 1.32578,-1.61796 1.32578,-2.14312 1.98867,-3.77611 1.32578,-3.07506 1.32578,-3.86955 1.32578,-4.61405 1.32578,-5.44004 2.65156,-12.56762 1.32578,-6.72632 1.32578,-7.90882 1.98867,-14.22258 2.65156,-20.78089 2.65156,-20.51603 1.98867,-15.40453 1.98867,-17.38835 3.31445,-31.67044 1.32578,-9.46211 0.66289,-3.50544 0.66289,-2.76838 1.32578,-4.23675 3.31445,-9.718184 0.66289,-1.285909 0.66289,-0.72491 0.66289,-0.09987 0.66289,0.463991 0.66289,0.866462 0.66289,1.124273 0.66289,1.371727 0.66289,1.74243 0.66289,2.23413 1.32578,5.6265 3.31445,14.6568 0.66289,4.21316 0.66289,5.19929 1.32578,12.82377 1.32578,13.19368 1.32578,11.09241 1.98867,16.06015 2.65156,22.38442 3.31445,25.04644 1.98867,13.32715 1.98867,11.68269 1.98867,10.66076 1.32578,5.98503 1.32578,5.04148 1.32578,4.2128 1.32578,3.46177 2.65156,6.11013 1.32578,2.56932 1.32578,2.06599 1.32578,1.69604 1.32578,1.38969 1.32578,1.0413 1.32578,0.74119 1.32578,0.54299 1.32578,0.31669 3.31445,0.46118 2.65156,0.49283 4.64023,0.42581 3.31445,0.0755 5.30312,0.0499 1.98867,0.01 v 0"
           clip-path="url(#p863e9fa9dc)"
           style="fill:none;stroke:#ff7f0e;stroke-width:1.5;stroke-linecap:square"
           id="path76" />
      </g>
      <g
         id="line2d_15">
        <path
           d="m 185.58054,307.58356 8.75453,-0.11846 2.6937,-0.10379 3.36713,-0.32832 3.36712,-0.65612 1.34686,-0.43858 1.34685,-0.76759 3.36712,-2.6179 2.02028,-1.69273 1.34685,-1.48869 1.34685,-2.12325 1.34685,-2.89846 2.02028,-5.35064 2.02028,-6.01669 1.34685,-4.94747 1.34685,-6.2745 4.04055,-21.05388 1.34685,-8.18356 2.02028,-13.90547 3.36712,-24.59906 1.34686,-11.60162 4.04055,-38.34169 2.6937,-20.8957 1.34685,-8.79246 1.34685,-7.38657 2.02028,-9.81148 1.34685,-5.48621 0.67342,-2.137613 0.67343,-1.519251 0.67342,-0.773161 0.67343,-0.01106 0.67342,0.631817 1.34686,2.274918 2.02027,3.54848 0.67343,1.58349 0.67342,2.16773 1.34685,5.94304 2.02028,10.5456 0.67343,4.36468 1.34685,10.88969 2.02027,17.06361 4.71398,35.36451 2.02028,17.59591 2.6937,24.21593 1.34685,9.60433 2.02028,12.36176 1.34685,6.83692 2.6937,11.90799 1.34685,5.36243 1.34685,4.5735 2.02028,5.90155 1.34685,3.44191 1.34685,3.01622 1.34685,2.55725 1.34685,1.96095 1.34685,1.42118 2.02028,1.70082 1.34685,0.89647 1.34685,0.67198 1.34685,0.4305 4.04055,0.73919 2.6937,0.23583 5.38741,0.42438 10.10138,0.0874 v 0"
           clip-path="url(#p863e9fa9dc)"
           style="fill:none;stroke:#1f77b4;stroke-width:1.5;stroke-linecap:square"
           id="path77" />
      </g>
      <g
         id="patch_3">
        <path
           d="M 57.6,307.584 V 41.472"
           style="fill:none;stroke:#000000;stroke-width:0.8;stroke-linecap:square;stroke-linejoin:miter"
           id="path78" />
      </g>
      <g
         id="patch_4"
         style="display:inline">
        <path
           d="M 414.72,307.584 V 41.472"
           style="fill:none;stroke:#000000;stroke-width:0.8;stroke-linecap:square;stroke-linejoin:miter"
           id="path79" />
      </g>
      <g
         id="patch_5"
         style="display:inline">
        <path
           d="M 57.6,307.584 H 414.72"
           style="fill:none;stroke:#000000;stroke-width:0.8;stroke-linecap:square;stroke-linejoin:miter"
           id="path80" />
      </g>
      <g
         id="patch_6">
        <path
           d="M 57.6,41.472 H 414.72"
           style="display:inline;fill:none;stroke:#000000;stroke-width:0.8;stroke-linecap:square;stroke-linejoin:miter"
           id="path81" />
      </g>
    </g>
  </g>
  <text
     xml:space="preserve"
     style="font-size:12px;font-family:'Times New Roman';-inkscape-font-specification:'Times New Roman, ';fill:none;fill-rule:evenodd;stroke:#000000;stroke-width:1;stroke-linecap:butt;stroke-linejoin:round;stroke-dasharray:none;stroke-opacity:1"
     x="219.49461"
     y="334.94742"
     id="text101-1-96-8-3"
     inkscape:label="x label"><tspan
       sodipodi:role="line"
       id="tspan101-7-7-26-1"
       style="font-style:normal;font-variant:normal;font-weight:normal;font-stretch:normal;font-family:Arial;-inkscape-font-specification:Arial;fill:#000000;fill-opacity:1;stroke:none;stroke-width:1;stroke-dasharray:none"
       x="219.49461"
       y="334.94742">score</tspan></text>
  <defs
     id="defs81">
    <clipPath
       id="p863e9fa9dc">
      <rect
         x="57.6"
         y="41.472"
         width="357.12"
         height="266.112"
         id="rect81" />
    </clipPath>
  </defs>
  <g
     id="line2d_15-1-6"
     style="fill:none;stroke-width:1.1;stroke-linecap:butt;stroke-linejoin:round;stroke-dasharray:none"
     transform="matrix(0.8178384,0.0053602,-0.00338118,1.2965398,256.24327,-61.320339)"
     inkscape:label="legend">
    <text
       xml:space="preserve"
       style="font-size:11.6534px;font-family:'Times New Roman';-inkscape-font-specification:'Times New Roman, ';fill:none;fill-rule:evenodd;stroke:#000000;stroke-width:0.971113;stroke-linecap:butt;stroke-linejoin:round;stroke-dasharray:none;stroke-opacity:1"
       x="58.072796"
       y="205.33151"
       id="text101-1-96"
       inkscape:label="pred"
       transform="matrix(1.2590862,-0.00520536,0.0032835,0.79421323,0,0)"><tspan
         sodipodi:role="line"
         id="tspan101-7-7"
         style="font-style:normal;font-variant:normal;font-weight:normal;font-stretch:normal;font-family:Arial;-inkscape-font-specification:Arial;fill:#000000;fill-opacity:1;stroke:none;stroke-width:0.971113;stroke-dasharray:none"
         x="58.072796"
         y="205.33151">disadvantaged</tspan></text>
    <text
       xml:space="preserve"
       style="font-size:11.6534px;font-family:'Times New Roman';-inkscape-font-specification:'Times New Roman, ';fill:none;fill-rule:evenodd;stroke:#000000;stroke-width:0.971113;stroke-linecap:butt;stroke-linejoin:round;stroke-dasharray:none;stroke-opacity:1"
       x="58.182858"
       y="219.25172"
       id="text101-1-96-3"
       inkscape:label="pred"
       transform="matrix(1.2590862,-0.00520536,0.0032835,0.79421323,0,0)"><tspan
         sodipodi:role="line"
         id="tspan101-7-7-2"
         style="font-style:normal;font-variant:normal;font-weight:normal;font-stretch:normal;font-family:Arial;-inkscape-font-specification:Arial;fill:#000000;fill-opacity:1;stroke:none;stroke-width:0.971113;stroke-dasharray:none"
         x="58.182858"
         y="219.25172">advantaged</tspan></text>
    <path
       d="M 12.15895,90.95861 91.284376,90.40257"
       clip-path="url(#pf361c1727c-1-9)"
       style="opacity:1;fill:none;stroke:#000000;stroke-width:1.1;stroke-linecap:butt;stroke-linejoin:round;stroke-dasharray:none;stroke-dashoffset:0;stroke-opacity:1"
       id="path86-8-1"
       sodipodi:nodetypes="cc"
       transform="matrix(0.95778664,1.7452008e-4,1.7452231e-4,0.99999926,1.1715406,24.441374)"
       inkscape:label="disadvantaged-line" />
    <path
       d="M 12.15895,90.95861 91.284376,90.40257"
       clip-path="url(#pf361c1727c-1)"
       style="opacity:1;fill:none;stroke:#000000;stroke-width:1.5;stroke-linecap:butt;stroke-linejoin:round;stroke-dasharray:5.55, 2.4;stroke-dashoffset:0;stroke-opacity:1"
       id="path86-8"
       sodipodi:nodetypes="cc"
       transform="matrix(1.0905934,-0.00132013,-0.00132008,0.77128253,-8.560606,35.25963)"
       inkscape:label="disadvantaged-line" />
    <text
       xml:space="preserve"
       style="font-size:12px;font-family:'Times New Roman';-inkscape-font-specification:'Times New Roman, ';opacity:1;fill:none;fill-rule:evenodd;stroke:#000000;stroke-width:1;stroke-linecap:butt;stroke-linejoin:round;stroke-dasharray:none;stroke-opacity:1"
       x="220.13544"
       y="338.44775"
       id="text101"
       inkscape:label="scores"
       transform="matrix(1.2227145,-0.00505499,0.00318865,0.77127049,-217.57774,-165.51168)"><tspan
         sodipodi:role="line"
         id="tspan101"
         style="font-style:normal;font-variant:normal;font-weight:normal;font-stretch:normal;font-family:Arial;-inkscape-font-specification:Arial;fill:#000000;fill-opacity:1;stroke:none;stroke-width:1;stroke-dasharray:none"
         x="220.13544"
         y="338.44775">score distributions</tspan></text>
    <text
       xml:space="preserve"
       style="font-size:11.6534px;font-family:'Times New Roman';-inkscape-font-specification:'Times New Roman, ';fill:none;fill-rule:evenodd;stroke:#000000;stroke-width:0.971113;stroke-linecap:butt;stroke-linejoin:round;stroke-dasharray:none;stroke-opacity:1"
       x="42.078423"
       y="190.68625"
       id="text101-4"
       inkscape:label="groups"
       transform="matrix(1.2590862,-0.00520536,0.0032835,0.79421323,0,0)"><tspan
         sodipodi:role="line"
         id="tspan101-0"
         style="font-style:normal;font-variant:normal;font-weight:normal;font-stretch:normal;font-family:Arial;-inkscape-font-specification:Arial;fill:#000000;fill-opacity:1;stroke:none;stroke-width:0.971113;stroke-dasharray:none"
         x="42.078423"
         y="190.68625">groups</tspan></text>
    <text
       xml:space="preserve"
       style="font-size:11.6534px;font-family:'Times New Roman';-inkscape-font-specification:'Times New Roman, ';fill:none;fill-rule:evenodd;stroke:#000000;stroke-width:0.971113;stroke-linecap:butt;stroke-linejoin:round;stroke-dasharray:none;stroke-opacity:1"
       x="77.914383"
       y="135.28583"
       id="text101-1"
       inkscape:label="pred"
       transform="matrix(1.2590862,-0.00520536,0.0032835,0.79421323,0,0)"><tspan
         sodipodi:role="line"
         id="tspan101-7"
         style="font-style:normal;font-variant:normal;font-weight:normal;font-stretch:normal;font-family:Arial;-inkscape-font-specification:Arial;fill:#000000;fill-opacity:1;stroke:none;stroke-width:0.971113;stroke-dasharray:none"
         x="77.914383"
         y="135.28583">predicted</tspan></text>
    <text
       xml:space="preserve"
       style="font-size:11.6534px;font-family:'Times New Roman';-inkscape-font-specification:'Times New Roman, ';fill:none;fill-rule:evenodd;stroke:#000000;stroke-width:0.971113;stroke-linecap:butt;stroke-linejoin:round;stroke-dasharray:none;stroke-opacity:1"
       x="77.40184"
       y="148.39589"
       id="text101-1-9"
       inkscape:label="true"
       transform="matrix(1.2590862,-0.00520536,0.0032835,0.79421323,0,0)"><tspan
         sodipodi:role="line"
         id="tspan101-7-8"
         style="font-style:normal;font-variant:normal;font-weight:normal;font-stretch:normal;font-family:Arial;-inkscape-font-specification:Arial;fill:#000000;fill-opacity:1;stroke:none;stroke-width:0.971113;stroke-dasharray:none"
         x="77.40184"
         y="148.39589">true</tspan></text>
    <text
       xml:space="preserve"
       style="font-size:11.6534px;font-family:'Times New Roman';-inkscape-font-specification:'Times New Roman, ';fill:none;fill-rule:evenodd;stroke:#000000;stroke-width:0.971113;stroke-linecap:butt;stroke-linejoin:round;stroke-dasharray:none;stroke-opacity:1"
       x="75.752594"
       y="160.95947"
       id="text101-1-9-0"
       inkscape:label="true"
       transform="matrix(1.2590862,-0.00520536,0.0032835,0.79421323,0,0)"><tspan
         sodipodi:role="line"
         style="font-style:normal;font-variant:normal;font-weight:normal;font-stretch:normal;font-family:Arial;-inkscape-font-specification:Arial;fill:#000000;fill-opacity:1;stroke:none;stroke-width:0.971113;stroke-dasharray:none"
         x="75.752594"
         y="160.95947"
         id="tspan85">decision</tspan></text>
    <text
       xml:space="preserve"
       style="font-style:normal;font-variant:normal;font-weight:normal;font-stretch:normal;font-size:11.6534px;font-family:Arial;-inkscape-font-specification:Arial;opacity:1;fill:#000000;fill-opacity:1;fill-rule:evenodd;stroke:none;stroke-width:0.97111;stroke-linecap:butt;stroke-linejoin:round;stroke-dasharray:none;stroke-opacity:1"
       x="117.84112"
       y="172.22871"
       id="text103"
       transform="matrix(1.2590862,-0.00520536,0.00328351,0.79421322,0,0)"><tspan
         sodipodi:role="line"
         id="tspan103"
         style="stroke-width:0.971113"
         x="117.84112"
         y="172.22871" /></text>
    <rect
       style="opacity:1;fill:#ff7f0e;fill-opacity:1;fill-rule:evenodd;stroke:#000000;stroke-width:0.308814;stroke-linecap:butt;stroke-linejoin:round;stroke-dasharray:none;stroke-opacity:1"
       id="rect103"
       width="11.626932"
       height="7.1124539"
       x="56.962986"
       y="157.18347"
       transform="rotate(-0.23687273)" />
    <rect
       style="fill:#1f77b4;fill-opacity:1;fill-rule:evenodd;stroke:#000000;stroke-width:0.308814;stroke-linecap:butt;stroke-linejoin:round;stroke-dasharray:none;stroke-opacity:1"
       id="rect103-6"
       width="11.626932"
       height="7.1124539"
       x="56.962986"
       y="168.23918"
       transform="rotate(-0.23687273)" />
    <rect
       style="fill:none;fill-rule:evenodd;stroke:#000000;stroke-width:0.564087;stroke-dasharray:none;stroke-opacity:1"
       id="rect83"
       width="142.17232"
       height="95.702721"
       x="43.561287"
       y="84.588722"
       transform="rotate(-0.23687292)" />
    <path
       style="fill:#1f77b4;fill-opacity:1;fill-rule:evenodd;stroke:#000000;stroke-width:2.39568;stroke-linecap:butt;stroke-linejoin:round;stroke-dasharray:none;stroke-opacity:0.239044"
       d="m 89.235842,125.51444 -33.123214,0.13712"
       id="path103-1"
       sodipodi:nodetypes="cc" />
    <text
       xml:space="preserve"
       style="font-size:11.6534px;font-family:Arial;-inkscape-font-specification:Arial;fill:#000000;fill-opacity:1;fill-rule:evenodd;stroke:none;stroke-width:0.485557;stroke-dasharray:none;stroke-opacity:1"
       x="75.488365"
       y="171.90448"
       id="text86"
       transform="matrix(1.2590862,-0.00520536,0.00328351,0.79421322,0,0)"><tspan
         sodipodi:role="line"
         id="tspan86"
         style="fill:#000000;fill-opacity:1;stroke:none;stroke-width:0.485556"
         x="75.488365"
         y="171.90448">boundary</tspan></text>
  </g>
  <path
     style="stroke-linecap:butt;stroke-linejoin:round;stroke-width:2;stroke-dasharray:none;opacity:1;fill:#1f77b4;fill-opacity:1;fill-rule:evenodd;stroke:#000000;stroke-opacity:0.239044"
     d="M 236.03087,41.2281 V 311.78751"
     id="path103"
     sodipodi:nodetypes="cc"
     transform="translate(0.1421936,-0.144664)"
     inkscape:label="decision-boundary" />
</svg>
